<svg xmlns="http://www.w3.org/2000/svg" width="38" height="30" fill="none" viewBox="0 0 38 30"><g filter="url(#filter0_d)"><mask id="mask0" width="32" height="24" x="3" y="1" mask-type="alpha" maskUnits="userSpaceOnUse"><rect width="32" height="24" x="3" y="1" fill="#fff"/></mask><g mask="url(#mask0)"><path fill="#F7FCFF" fill-rule="evenodd" d="M3 1V25H35V1H3Z" clip-rule="evenodd"/><mask id="mask1" width="32" height="24" x="3" y="1" mask-type="alpha" maskUnits="userSpaceOnUse"><path fill="#fff" fill-rule="evenodd" d="M3 1V25H35V1H3Z" clip-rule="evenodd"/></mask><g mask="url(#mask1)"><path fill="#E31D1C" fill-rule="evenodd" d="M19 20.5C23.1421 20.5 26.5 17.1421 26.5 13C26.5 8.85786 23.1421 5.5 19 5.5C14.8579 5.5 11.5 8.85786 11.5 13C11.5 17.1421 14.8579 20.5 19 20.5Z" clip-rule="evenodd"/></g></g><rect width="32" height="24" x="3" y="1" fill="url(#paint0_linear)" style="mix-blend-mode:overlay"/><path fill="#000" fill-opacity=".1" d="M5 2H33V0H5V2ZM34 3V23H36V3H34ZM33 24H5V26H33V24ZM4 23V3H2V23H4ZM5 24C4.44772 24 4 23.5523 4 23H2C2 24.6569 3.34315 26 5 26V24ZM34 23C34 23.5523 33.5523 24 33 24V26C34.6569 26 36 24.6569 36 23H34ZM33 2C33.5523 2 34 2.44772 34 3H36C36 1.34315 34.6569 0 33 0V2ZM5 0C3.34315 0 2 1.34314 2 3H4C4 2.44772 4.44771 2 5 2V0Z" style="mix-blend-mode:multiply"/></g><defs><filter id="filter0_d" width="38" height="30" x="0" y="0" color-interpolation-filters="sRGB" filterUnits="userSpaceOnUse"><feFlood flood-opacity="0" result="BackgroundImageFix"/><feColorMatrix in="SourceAlpha" type="matrix" values="0 0 0 0 0 0 0 0 0 0 0 0 0 0 0 0 0 0 127 0"/><feOffset dy="2"/><feGaussianBlur stdDeviation="1.5"/><feColorMatrix type="matrix" values="0 0 0 0 0 0 0 0 0 0 0 0 0 0 0 0 0 0 0.1 0"/><feBlend in2="BackgroundImageFix" mode="normal" result="effect1_dropShadow"/><feBlend in="SourceGraphic" in2="effect1_dropShadow" mode="normal" result="shape"/></filter><linearGradient id="paint0_linear" x1="19" x2="19" y1="1" y2="25" gradientUnits="userSpaceOnUse"><stop stop-color="#fff" stop-opacity=".7"/><stop offset="1" stop-opacity=".3"/></linearGradient></defs></svg>